<?xml version="1.0" encoding="UTF-8" standalone="no"?>
<svg
   xmlns:dc="http://purl.org/dc/elements/1.1/"
   xmlns:cc="http://creativecommons.org/ns#"
   xmlns:rdf="http://www.w3.org/1999/02/22-rdf-syntax-ns#"
   xmlns:svg="http://www.w3.org/2000/svg"
   xmlns="http://www.w3.org/2000/svg"
   xmlns:sodipodi="http://sodipodi.sourceforge.net/DTD/sodipodi-0.dtd"
   xmlns:inkscape="http://www.inkscape.org/namespaces/inkscape"
   width="124"
   height="29"
   version="1.1"
   id="svg14"
   sodipodi:docname="labela-logo.svg"
   inkscape:version="1.0.2-2 (e86c870879, 2021-01-15)">
  <metadata
     id="metadata20">
    <rdf:RDF>
      <cc:Work
         rdf:about="">
        <dc:format>image/svg+xml</dc:format>
        <dc:type
           rdf:resource="http://purl.org/dc/dcmitype/StillImage" />
        <dc:title></dc:title>
      </cc:Work>
    </rdf:RDF>
  </metadata>
  <defs
     id="defs18" />
  <sodipodi:namedview
     pagecolor="#ffffff"
     bordercolor="#666666"
     borderopacity="1"
     objecttolerance="10"
     gridtolerance="10"
     guidetolerance="10"
     inkscape:pageopacity="0"
     inkscape:pageshadow="2"
     inkscape:window-width="1920"
     inkscape:window-height="986"
     id="namedview16"
     showgrid="false"
     inkscape:zoom="12.298387"
     inkscape:cx="62"
     inkscape:cy="14.5"
     inkscape:window-x="-11"
     inkscape:window-y="-11"
     inkscape:window-maximized="1"
     inkscape:current-layer="svg14" />
  <g
     fill="none"
     fill-rule="evenodd"
     id="g12">
    <g
       fill="#FFFFFE"
       id="g4">
      <path
         d="M97.086 12.112l-1.23 3.764h2.497l-1.23-3.764h-.037zm3.382 10.014l-.88-2.61h-4.961l-.88 2.61h-6.764l5.31-15.411 9.628-.002 5.31 15.413h-6.763zm22.466-7.702L106.412.014H83.178v28.82h23.234l16.522-14.41zM22.617 15.874l1.231-3.767h.042l1.226 3.767h-2.499zm6.071-9.172H19.05l-5.004 14.526v-.001l-.312.903h6.771l.881-2.612h4.961l.886 2.612h6.765l-5.31-15.428zM48.582 14.321c1.538-.89 1.986-2.047 1.986-3.312 0-1.78-.984-4.307-5.926-4.307h-9.558V22.13h10.663c3.571 0 5.236-1.888 5.236-4.265 0-1.327-.476-2.508-2.401-3.544zm-6.729-4.513h.411c1.375 0 1.785.644 1.785 1.492 0 1.096-.554 1.51-2.032 1.51h-.164V9.808zm.201 8.923h-.2v-3.333h.47c1.418 0 1.884.726 1.884 1.742 0 1.159-.592 1.591-2.154 1.591zM52.398 22.13H65.09v-3.873h-5.927v-1.908h4.127v-3.868h-4.127v-1.906h5.927V6.702H52.398V22.13M73.426 6.702h-6.77V22.13h12.696v-3.873h-5.926V6.702M6.765 18.257V6.702H0V22.13h12.691v-3.873H6.765"
         id="path2" />
    </g>
    <path
       fill="#FFFFFE"
       d="M86.25 24.395h23.134V4.308H86.251z"
       id="path6" />
    <path
       d="M97.383 12.112l-1.234 3.764h2.505l-1.234-3.764h-.037zm3.391 10.014l-.883-2.61h-4.975l-.883 2.61h-6.784l5.325-15.411 9.658-.002 5.326 15.413h-6.784zm22.535-7.702L106.736.014H83.431v28.82h23.306l16.572-14.41z"
       fill="#82BC00"
       id="path8" />
    <path
       d="M22.686 15.874l1.235-3.767h.042l1.23 3.767h-2.507zm6.09-9.172h-9.667l-5.02 14.526v-.001l-.313.903h6.792l.883-2.612h4.977l.888 2.612h6.786L28.776 6.702zM48.73 14.321c1.543-.89 1.992-2.047 1.992-3.312 0-1.78-.987-4.307-5.944-4.307h-9.587V22.13h10.696c3.582 0 5.252-1.888 5.252-4.265 0-1.327-.478-2.508-2.409-3.544zm-6.749-4.513h.412c1.38 0 1.79.644 1.79 1.492 0 1.096-.556 1.51-2.038 1.51h-.164V9.808zm.201 8.923h-.2v-3.333h.472c1.421 0 1.889.726 1.889 1.742 0 1.159-.594 1.591-2.16 1.591zM52.558 22.13h12.73v-3.873h-5.944v-1.908h4.139v-3.868h-4.139v-1.906h5.944V6.702h-12.73V22.13M73.65 6.702h-6.79V22.13h12.734v-3.873H73.65V6.702M6.786 18.257V6.702H0V22.13h12.73v-3.873H6.786"
       fill="#0A0B09"
       id="path10" />
  </g>
</svg>
