<?xml version="1.0" encoding="utf-8"?>
<!-- Generator: Adobe Illustrator 25.3.1, SVG Export Plug-In . SVG Version: 6.00 Build 0)  -->
<svg version="1.1" id="Layer_1" xmlns="http://www.w3.org/2000/svg" xmlns:xlink="http://www.w3.org/1999/xlink" x="0px" y="0px"
	 viewBox="0 0 820 210" style="enable-background:new 0 0 820 210;" xml:space="preserve">
<style type="text/css">
	.st0{fill:#2A2D34;}
	.st1{enable-background:new    ;}
	.st2{fill:url(#SVGID_1_);}
	.st3{fill:url(#XMLID_2_);}
	.st4{fill:url(#SVGID_2_);}
	.st5{fill:url(#SVGID_3_);}
</style>
<g>
	<path class="st0" d="M215.6,73.1h22.1c15.5,0,27.1,5.4,27.1,21.7c0,15.6-11.6,22.6-26.7,22.6h-9.8v25.5h-12.7V73.1z M237.2,107.2
		c10.3,0,15.1-4.1,15.1-12.5c0-8.5-5.3-11.5-15.5-11.5h-8.4v24H237.2z"/>
	<path class="st0" d="M264.5,128.8c0-11.5,9.2-17.3,30.8-19.7c-0.2-5.3-2.3-9.8-9.4-9.8c-5.1,0-10,2.1-14.7,4.9l-4.5-8.3
		c5.8-3.6,13.2-6.8,21.6-6.8c13,0,19.7,8.1,19.7,22.8v31.1h-10.3l-1.1-5.8h-0.4c-4.7,4.1-9.8,7-16,7
		C270.9,144.2,264.5,138,264.5,128.8z M295.3,128.8v-11.1c-14.3,1.7-18.6,4.9-18.6,10.3c0,4.5,3,6.2,7.3,6.2
		C288.2,134.2,291.4,132.5,295.3,128.8z"/>
	<path class="st0" d="M349.2,90.4l1.5-16.3h10.5v16.3h13.3v10h-13.3v24.7c0,6.1,2.4,9.1,7.4,9.1c1.8,0,3.6-0.3,5.4-1.1l2.2,8.9
		c-2.8,1.3-6.6,2.2-10.9,2.2c-12.3,0-16.8-7.7-16.8-19.1v-24.7h-18.7v24.7c0,6.1,2.5,9.1,7.4,9.1c1.8,0,3.6-0.3,5.4-1.1l2.2,8.9
		c-2.8,1.3-6.6,2.2-10.9,2.2c-12.3,0-16.8-7.7-16.8-19.1v-24.7h-7.5V91l8.1-0.6l1.5-16.3h10.5v16.3H349.2z"/>
	<path class="st0" d="M375,116.6c0-17.1,12-27.6,24.2-27.6c14.2,0,21.9,10.3,21.9,25c0,2.6-0.2,4.5-0.6,6.4h-33.1
		c1.3,8.8,6.8,13.9,15.2,13.9c4.5,0,8.5-1.3,12.2-3.6l4.3,7.9c-4.9,3.6-11.3,5.6-18.2,5.6C386.3,144.2,375,134.2,375,116.6z
		 M410,111.1c0-7.7-3.6-12.2-10.5-12.2c-6,0-11.1,4.3-12.2,12.2H410z"/>
	<path class="st0" d="M427.3,90.4h10.4l1,9.4h0.3c3.8-6.8,9.4-10.7,15-10.7c2.7,0,4.4,0.4,6,1.1l-2.6,10.8c-1.6-0.4-2.9-0.6-5-0.6
		c-4.2,0-9.2,2.8-12.3,10.8v31.8h-12.7V90.4z"/>
	<path class="st0" d="M462.1,90.4h10.4l1,7h0.3c4.7-4.5,10-8.3,17.2-8.3c11.3,0,16.2,7.7,16.2,20.9v32.9h-12.6v-31.3
		c0-8.5-2.5-11.6-8-11.6c-4.6,0-7.6,2.1-11.7,6.4v36.5h-12.7V90.4z"/>
	<path class="st0" d="M511.6,136.5l5.6-7.2c4.6,3.7,9.4,5.3,14.7,5.3c5.6,0,8.2-2.6,8.2-6.1c0-4.4-5.1-6.1-11-8.2
		c-7.6-2.8-14.6-7.2-14.6-15.5c0-9.2,7.5-15.8,19.2-15.8c7.2,0,13.2,2.7,17.5,6.4l-5.4,7.2c-3.7-2.8-7.6-4.1-11.7-4.1
		c-5.2,0-7.6,2.6-7.6,5.7c0,3.8,3.7,5.3,10.4,7.6c8.1,2.8,15.3,6.9,15.3,16c0,9.1-7.3,16.3-20.6,16.3
		C524.2,144.2,516.7,141.4,511.6,136.5z"/>
	<path class="st0" d="M571.4,117.4c0-17.1,10.7-27,23-27c12.3,0,23,9.9,23,27c0,17-10.7,26.8-23,26.8
		C582.1,144.2,571.4,134.4,571.4,117.4z M612.7,117.4c0-13.7-7.9-23.1-18.4-23.1c-10.5,0-18.4,9.4-18.4,23.1s7.9,22.9,18.4,22.9
		C604.8,140.2,612.7,131.1,612.7,117.4z"/>
	<path class="st0" d="M628.1,95.6h-7v-3.5l7-0.4V80c0-10.1,4.6-15.3,12.5-15.3c2.3,0,5.2,0.6,7.4,1.7l-1.3,3.4
		c-2.1-0.9-4.2-1.3-6.1-1.3c-5.6,0-8.1,4.3-8.1,11.7v11.3h12v4h-12v47.3h-4.4V95.6z"/>
	<path class="st0" d="M664.9,73.1h12.7v59.2h28.8v10.7h-41.6V73.1z"/>
	<path class="st0" d="M710.9,74.2c0-4.3,3.1-7.2,7.6-7.2c4.5,0,7.6,2.9,7.6,7.2c0,4.3-3.1,7.2-7.6,7.2
		C714,81.4,710.9,78.5,710.9,74.2z M712.1,90.4h12.7v52.6h-12.7V90.4z"/>
	<path class="st0" d="M737.1,100.4h-7V91l7-0.6v-5.1c0-10.9,5-19,17.5-19c3.8,0,7.5,1,9.7,1.8l-2.6,9.1c-1.9-0.5-3.7-0.9-5.4-0.9
		c-4.4,0-6.6,2.8-6.6,8.8v5.3h10.1v10h-10.1v42.5h-12.6V100.4z"/>
	<path class="st0" d="M759.1,116.6c0-17.1,12-27.6,24.2-27.6c14.2,0,21.9,10.3,21.9,25c0,2.6-0.2,4.5-0.6,6.4h-33.1
		c1.3,8.8,6.8,13.9,15.2,13.9c4.5,0,8.5-1.3,12.2-3.6l4.3,7.9c-4.9,3.6-11.3,5.6-18.2,5.6C770.4,144.2,759.1,134.2,759.1,116.6z
		 M794.1,111.1c0-7.7-3.6-12.2-10.5-12.2c-6,0-11.1,4.3-12.2,12.2H794.1z"/>
</g>
<g>
	<g>
		<g class="st1">
			<g>
				<g>
					<linearGradient id="SVGID_1_" gradientUnits="userSpaceOnUse" x1="47.9502" y1="112.7993" x2="196.029" y2="82.4775">
						<stop  offset="0" style="stop-color:#F8BE66"/>
						<stop  offset="1" style="stop-color:#D18839"/>
					</linearGradient>
					<path class="st2" d="M145.3,188.2c0.2,2.6,0.1,5-0.4,7.2c-0.4,2.2-1.2,4.2-2.3,5.7c-1.1,1.6-2.5,2.8-4.1,3.4
						c-0.9,0.3-1.7,0.5-2.6,0.5c-0.9,0-1.8-0.1-2.7-0.4c-1.9-0.6-3.7-1.7-5.5-3.3c-1.8-1.6-3.4-3.7-4.9-6.2
						c-1.4-2.5-2.6-5.3-3.5-8.3c0-0.2-0.1-0.3-0.1-0.5c0-0.2-0.1-0.3-0.1-0.5c0-0.2-0.1-0.3-0.1-0.5c0-0.2-0.1-0.3-0.1-0.5L88,174.1
						c0,0.1-0.1,0.2-0.1,0.4c0,0.1-0.1,0.2-0.1,0.3c0,0.1-0.1,0.2-0.1,0.3c0,0.1-0.1,0.2-0.1,0.3c-0.5,1.3-1.1,2.4-1.8,3.4
						c-0.7,1-1.5,1.9-2.4,2.7c-0.9,0.8-1.8,1.4-2.8,2c-1,0.5-2.1,0.9-3.2,1.2c-0.9,0.2-1.9,0.3-2.9,0.3c-0.2,0-0.4,0-0.6,0
						c-1.2,0-2.4-0.3-3.7-0.6c-1.2-0.4-2.5-0.9-3.7-1.6c-1.3-0.7-2.5-1.6-3.7-2.6c-2.4-2.1-4.4-4.6-6-7.5c-1.6-2.8-2.7-5.9-3.4-9
						c-0.6-3.1-0.8-6.2-0.5-9.2c0.4-2.9,1.2-5.7,2.6-8.1c0.1-0.1,0.1-0.2,0.2-0.3c0.1-0.1,0.1-0.2,0.2-0.3c0.1-0.1,0.1-0.2,0.2-0.3
						c0.1-0.1,0.1-0.2,0.2-0.3l-23.6-41.3c-0.1,0-0.2,0-0.2,0H32c-0.1,0-0.2,0-0.3,0c-0.1,0-0.3,0-0.4,0c-0.1,0-0.3,0-0.4,0
						c-2.9-0.2-5.7-1-8.5-2.2c-2.8-1.3-5.4-3.1-7.8-5.3c-2.4-2.2-4.4-4.7-6.1-7.5C6.9,86,5.8,83,5.3,80c-0.5-3-0.3-5.7,0.4-8.1
						c0.7-2.4,1.9-4.4,3.6-5.9c1.6-1.5,3.7-2.6,6-3.2c1.3-0.3,2.6-0.5,4-0.5c1.2,0,2.4,0.1,3.6,0.3c0.1,0,0.3,0.1,0.4,0.1
						c0.1,0,0.3,0.1,0.4,0.1c0.1,0,0.3,0.1,0.4,0.1c0.1,0,0.3,0.1,0.4,0.1l7.2-29.8c-0.1-0.1-0.2-0.2-0.4-0.3
						c-0.1-0.1-0.2-0.2-0.4-0.3c-0.1-0.1-0.2-0.2-0.4-0.3c-0.1-0.1-0.2-0.2-0.3-0.4c-2.2-2.2-3.9-4.6-5.3-7
						c-1.3-2.4-2.3-4.7-2.7-6.9c-0.5-2.2-0.5-4.2,0-6c0.5-1.7,1.4-3.1,2.8-4.1c0.7-0.5,1.5-0.9,2.3-1.1c0.8-0.2,1.8-0.4,2.7-0.4
						c0,0,0.1,0,0.1,0h0.2c0.1,0,0.3,0,0.4,0c0.1,0,0.1,0,0.2,0c0.1,0,0.2,0,0.4,0c0.1,0,0.1,0,0.2,0c0.1,0,0.1,0,0.2,0
						c0.1,0,0.1,0,0.2,0c0,0,0.1,0,0.1,0c0.1,0,0.3,0,0.4,0.1c0.2,0,0.5,0.1,0.7,0.1c1,0.2,2.1,0.5,3.1,0.9c1.1,0.4,2.1,0.9,3.2,1.4
						c1.1,0.6,2.1,1.2,3.2,1.9c1,0.7,2.1,1.5,3.1,2.4c1,0.9,2,1.8,2.9,2.8c0.1,0.1,0.2,0.2,0.3,0.3c0.1,0.1,0.2,0.2,0.3,0.3
						c0.1,0.1,0.2,0.2,0.3,0.3c0.1,0.1,0.2,0.2,0.3,0.3l21.6-1.7c0-0.1-0.1-0.2-0.1-0.3c0-0.1-0.1-0.2-0.1-0.3
						c0-0.1-0.1-0.2-0.1-0.3c0-0.1-0.1-0.2-0.1-0.3c-0.5-1.9-0.7-3.6-0.5-5C70.7,8,71.2,6.9,72,6.2c0.8-0.7,1.9-1.2,3.1-1.2
						c0.1,0,0.2,0,0.3,0c0.8,0,1.7,0.1,2.7,0.4c0.3,0.1,0.5,0.2,0.8,0.3c0.2,0.1,0.4,0.1,0.6,0.2c1.6,0.7,3.3,1.7,4.8,2.9
						c1.6,1.2,3.1,2.7,4.4,4.2c1.4,1.6,2.6,3.3,3.6,5c1,1.7,1.9,3.6,2.4,5.3c0,0.1,0.1,0.2,0.1,0.3c0,0.1,0.1,0.2,0.1,0.3
						c0,0.1,0.1,0.2,0.1,0.3c0,0.1,0,0.2,0.1,0.3l25.5,19.4l-25.8-13c-0.3,0.6-0.7,1-1.1,1.4c-0.5,0.4-1,0.6-1.6,0.8
						c-0.5,0.1-1,0.2-1.6,0.2c-0.2,0-0.4,0-0.5,0c-0.8-0.1-1.6-0.2-2.5-0.5c-0.9-0.3-1.9-0.7-2.8-1.3c-0.9-0.5-1.9-1.2-2.8-1.9
						c-0.9-0.7-1.9-1.5-2.7-2.4c-0.9-0.9-1.7-1.8-2.6-2.8l-21.1,2.6c0.4,1.1,0.6,2.3,0.8,3.3c0.1,1.1,0.2,2.1,0.1,3.1
						c-0.1,1-0.3,1.9-0.7,2.7c-0.4,0.8-0.8,1.6-1.5,2.3c-0.2,0.2-0.5,0.5-0.7,0.7c-0.4,0.3-0.8,0.6-1.2,0.8
						c-0.7,0.4-1.6,0.6-2.4,0.8c-0.6,0.1-1.2,0.2-1.9,0.2c-0.3,0-0.6,0-0.9,0c-1-0.1-2-0.2-3-0.5c0,0-0.1,0-0.1,0
						c-0.1,0-0.2-0.1-0.4-0.1c-0.1,0-0.3-0.1-0.4-0.1c-0.1,0-0.3-0.1-0.4-0.1c-0.1,0-0.3-0.1-0.4-0.1l-6,29.6c1.2,1,2.3,2.2,3.3,3.4
						c1,1.2,1.9,2.5,2.7,3.8c0.8,1.3,1.5,2.7,2.1,4.1c0.6,1.4,1.1,2.9,1.4,4.3c0.3,1.5,0.5,2.9,0.5,4.3c0,1.4-0.1,2.7-0.4,3.9
						c-0.3,1.2-0.7,2.4-1.2,3.5c-0.5,1.1-1.2,2.1-2,2.9l22.7,39.6c0.1,0,0.2,0,0.3,0c0.1,0,0.2,0,0.3,0c0.1,0,0.2,0,0.3,0
						c0.1,0,0.2,0,0.3,0c0.3,0,0.5,0,0.8,0c0.9,0,1.7,0.1,2.6,0.2c1.1,0.2,2.3,0.5,3.4,1c1.1,0.5,2.2,1,3.3,1.8
						c1.1,0.7,2.2,1.6,3.2,2.5c1.1,1.1,2.2,2.2,3.1,3.5c0.9,1.2,1.8,2.6,2.5,3.9c0.7,1.4,1.4,2.8,1.9,4.3c0.5,1.5,0.9,3,1.2,4.5
						l11.1,4.2l7.1,2.7l11.8,4.5c0.3-1.3,0.7-2.4,1.1-3.5c0.5-1,1-2,1.7-2.7c0.6-0.8,1.4-1.4,2.2-1.9c0.8-0.5,1.7-0.8,2.6-1
						c0.4-0.1,0.9-0.1,1.3-0.1c0.5,0,1,0,1.5,0.1c0.9,0.2,1.9,0.5,2.8,1c0.9,0.5,1.9,1.1,2.8,1.8c0.9,0.7,1.8,1.6,2.6,2.5l18.9-21.8
						l-13,32c0.1,0.1,0.1,0.3,0.2,0.4c0.1,0.1,0.1,0.3,0.1,0.4l0.1,0.4c0,0.1,0.1,0.3,0.1,0.4C144.6,183,145.1,185.6,145.3,188.2z"
						/>
				</g>
			</g>
		</g>
	</g>
	<g>
		<linearGradient id="XMLID_2_" gradientUnits="userSpaceOnUse" x1="-21.623" y1="100.1005" x2="73.3179" y2="82.5023">
			<stop  offset="0" style="stop-color:#597274"/>
			<stop  offset="1" style="stop-color:#5E9A9E"/>
		</linearGradient>
		<path id="XMLID_5_" class="st3" d="M144.4,77.1c-3.6,9-12.4,13.9-19.8,11c-7.4-2.9-10.5-12.6-6.9-21.6c3.6-9,12.4-13.9,19.8-11
			C144.9,58.5,148,68.1,144.4,77.1z"/>
		<linearGradient id="SVGID_2_" gradientUnits="userSpaceOnUse" x1="43.6778" y1="181.3477" x2="129.1769" y2="118.4059">
			<stop  offset="0" style="stop-color:#597274"/>
			<stop  offset="1" style="stop-color:#5F9EA2"/>
		</linearGradient>
		<path class="st4" d="M181.3,58.9c1.6,26.3-8.1,39.3-11.7,43.5c-2.4,2.8-7.6,8.1-14.6,13c-8.4,6-12.8,6.1-20,12.7
			c-3.7,3.3-5.8,6.1-9.8,11.4c-7.4,9.7-10.1,16.3-11,18.6c-0.7,2-1.3,3.6-1.6,4.7l-3.4-1.3l-7.1-2.7l-7.9-3
			c-0.2-0.6-0.4-1.2-0.6-1.7c-0.1-0.1-0.1-0.3-0.2-0.4c4.9-3.9,14.6-12.9,20.1-27.9c4.8-13.1,4.1-24.6,3.3-30.4
			c5.6,1.5,16.1,3.4,28.2-0.1C170.8,87.7,180.2,62,181.3,58.9z"/>
		<linearGradient id="SVGID_3_" gradientUnits="userSpaceOnUse" x1="4.3942" y1="139.6822" x2="93.0332" y2="94.9511">
			<stop  offset="0" style="stop-color:#597274"/>
			<stop  offset="1" style="stop-color:#5F9EA2"/>
		</linearGradient>
		<path class="st5" d="M110.1,114.7c-0.3,1.6-1.4,6.7-4.2,12.8c-0.8,1.8-2.3,4.7-4.6,8.1c-1.9,2.8-2.8,4.6-5.7,8
			c-1,1.1-1.7,2-2.3,2.7c-0.6,0.6-1.3,1.4-2.1,2.3c-0.5-1-1.1-1.9-1.7-2.8c0.2-0.2,0.4-0.5,0.6-0.7c10.7-12.4,11.4-27.3,11.5-30.1
			c0.2-3.1,0.4-8.7-2-15.2c-2.4-6.7-6.3-10.9-8.6-13.3C80.8,75.6,67.6,72.2,61.5,71c1.2,0.6,22.8,11.3,30.3,24.3
			c2.9,5,4.1,9.9,4.1,9.9c1.3,5.4,0.9,9.9,0.7,12.6c-0.3,4.1-1.2,7.5-1.9,9.8c-5.8-1.3-13.8-3.9-22.3-9.1
			c-12.9-7.9-16.6-16.4-20.3-22.4c0.1-0.5,0.3-1,0.4-1.5c0.4-1.7,0.6-3.6,0.5-5.4c0-1.8-0.3-3.7-0.7-5.6c-0.4-1.8-1-3.7-1.7-5.5
			c-0.7-1.7-1.6-3.4-2.6-5c-1-1.6-2.1-3.1-3.3-4.6c-0.3-0.4-0.7-0.8-1-1.2c1.9-1,4.5-2.2,7.7-3.1c5.5-1.5,9.8-1.5,12.7-1.4
			c4,0.1,10,0.7,16.5,3.1c12,4.4,19.3,12.5,22.5,16.6c2.2,2.8,7.4,10.3,8.1,21C111.4,108.2,110.7,111.8,110.1,114.7z"/>
	</g>
</g>
</svg>
